ply
format ascii 1.0
comment Created by Blender 2.82 (sub 7) - www.blender.org, source file: ''
element vertex 24
property float x
property float y
property float z
property float nx
property float ny
property float nz
property uchar red
property uchar green
property uchar blue
property uchar alpha
element face 12
property list uchar uint vertex_indices
end_header
0.000000 0.000000 0.000000 -1.000000 -0.000000 0.000000 0 117 3 255
0.000000 0.046510 0.001886 -1.000000 -0.000000 0.000000 0 117 3 255
0.000000 0.046510 -0.000000 -1.000000 -0.000000 0.000000 0 117 3 255
0.000000 0.046510 0.001886 0.000000 -1.000000 0.000000 0 117 3 255
-0.077936 0.046510 0.001886 0.000000 -1.000000 0.000000 0 117 3 255
0.000000 0.046510 -0.000000 0.000000 -1.000000 0.000000 0 117 3 255
-0.077936 0.046510 -0.000000 0.000000 -1.000000 0.000000 0 117 3 255
-0.077936 0.046510 -0.000000 0.000000 0.000000 1.000000 0 117 3 255
-0.077936 0.000000 0.000000 0.000000 0.000000 1.000000 0 117 3 255
0.000000 0.046510 -0.000000 0.000000 0.000000 1.000000 0 117 3 255
0.000000 0.000000 0.000000 0.000000 0.000000 1.000000 0 117 3 255
-0.077936 0.046510 0.001886 1.000000 -0.000000 -0.000000 0 117 3 255
-0.077936 0.000000 0.001886 1.000000 -0.000000 -0.000000 0 117 3 255
-0.077936 0.046510 -0.000000 1.000000 -0.000000 -0.000000 0 117 3 255
-0.077936 0.000000 0.000000 1.000000 0.000000 -0.000000 0 117 3 255
0.000000 0.000000 0.001886 -1.000000 0.000000 -0.000000 0 117 3 255
-0.077936 0.000000 0.000000 0.000000 1.000000 -0.000000 0 117 3 255
0.000000 0.000000 0.001886 0.000000 1.000000 -0.000000 0 117 3 255
0.000000 0.000000 0.000000 0.000000 1.000000 -0.000000 0 117 3 255
-0.077936 0.000000 0.001886 0.000000 1.000000 -0.000000 0 117 3 255
0.000000 0.000000 0.001886 -0.000000 -0.000000 -1.000000 0 117 3 255
-0.077936 0.046510 0.001886 -0.000000 -0.000000 -1.000000 0 117 3 255
0.000000 0.046510 0.001886 -0.000000 -0.000000 -1.000000 0 117 3 255
-0.077936 0.000000 0.001886 0.000000 -0.000000 -1.000000 0 117 3 255
3 0 1 2
3 3 4 5
3 4 6 5
3 7 8 9
3 8 10 9
3 11 12 13
3 12 14 13
3 1 0 15
3 16 17 18
3 19 17 16
3 20 21 22
3 20 23 21
