ply
format ascii 1.0
comment Created by Blender 2.82 (sub 7) - www.blender.org, source file: ''
element vertex 48
property float x
property float y
property float z
property float nx
property float ny
property float nz
property uchar red
property uchar green
property uchar blue
property uchar alpha
element face 28
property list uchar uint vertex_indices
end_header
-0.990000 -0.500000 0.000000 0.000000 -0.000000 -1.000000 135 135 135 255
-1.050000 -0.500000 0.000000 0.000000 -0.000000 -1.000000 135 135 135 255
-0.990000 0.500000 0.000000 0.000000 -0.000000 -1.000000 135 135 135 255
-1.050000 0.500000 0.000000 0.000000 0.000000 -1.000000 135 135 135 255
-0.990000 -0.500000 0.940000 1.000000 0.000000 -0.000000 135 135 135 255
-0.990000 -0.500000 0.000000 1.000000 0.000000 -0.000000 135 135 135 255
-0.990000 0.500000 0.940000 1.000000 0.000000 -0.000000 135 135 135 255
-0.990000 0.500000 0.000000 1.000000 0.000000 -0.000000 135 135 135 255
0.890000 -0.500000 0.940000 0.000000 -0.000000 -1.000000 135 135 135 255
-0.990000 -0.500000 0.940000 0.000000 -0.000000 -1.000000 135 135 135 255
0.890000 0.500000 0.940000 0.000000 -0.000000 -1.000000 135 135 135 255
-0.990000 0.500000 0.940000 0.000000 0.000000 -1.000000 135 135 135 255
0.890000 -0.500000 0.000000 -1.000000 -0.000000 -0.000000 135 135 135 255
0.890000 -0.500000 0.940000 -1.000000 -0.000000 -0.000000 135 135 135 255
0.890000 0.500000 0.000000 -1.000000 -0.000000 -0.000000 135 135 135 255
0.890000 0.500000 0.940000 -1.000000 -0.000000 -0.000000 135 135 135 255
0.950000 -0.500000 0.000000 0.000000 0.000000 -1.000000 135 135 135 255
0.890000 -0.500000 0.000000 0.000000 0.000000 -1.000000 135 135 135 255
0.950000 0.500000 0.000000 0.000000 0.000000 -1.000000 135 135 135 255
0.890000 0.500000 0.000000 0.000000 0.000000 -1.000000 135 135 135 255
0.950000 -0.500000 1.000000 1.000000 0.000000 -0.000000 135 135 135 255
0.950000 -0.500000 0.000000 1.000000 0.000000 -0.000000 135 135 135 255
0.950000 0.500000 1.000000 1.000000 0.000000 -0.000000 135 135 135 255
0.950000 0.500000 0.000000 1.000000 0.000000 -0.000000 135 135 135 255
-1.050000 -0.500000 1.000000 0.000000 0.000000 1.000000 135 135 135 255
0.950000 -0.500000 1.000000 0.000000 0.000000 1.000000 135 135 135 255
-1.050000 0.500000 1.000000 0.000000 0.000000 1.000000 135 135 135 255
0.950000 0.500000 1.000000 0.000000 0.000000 1.000000 135 135 135 255
-1.050000 -0.500000 0.000000 -1.000000 -0.000000 -0.000000 135 135 135 255
-1.050000 -0.500000 1.000000 -1.000000 -0.000000 -0.000000 135 135 135 255
-1.050000 0.500000 0.000000 -1.000000 -0.000000 -0.000000 135 135 135 255
-1.050000 0.500000 1.000000 -1.000000 -0.000000 -0.000000 135 135 135 255
-0.990000 0.500000 0.000000 -0.000000 1.000000 0.000000 135 135 135 255
-1.050000 0.500000 0.000000 -0.000000 1.000000 0.000000 135 135 135 255
-0.990000 0.500000 0.940000 -0.000000 1.000000 0.000000 135 135 135 255
-1.050000 0.500000 1.000000 -0.000000 1.000000 0.000000 135 135 135 255
0.890000 0.500000 0.940000 0.000000 1.000000 0.000000 135 135 135 255
0.950000 0.500000 1.000000 0.000000 1.000000 0.000000 135 135 135 255
0.950000 0.500000 0.000000 0.000000 1.000000 -0.000000 135 135 135 255
0.890000 0.500000 0.000000 -0.000000 1.000000 0.000000 135 135 135 255
-1.050000 -0.500000 0.000000 0.000000 -1.000000 -0.000000 135 135 135 255
-0.990000 -0.500000 0.940000 0.000000 -1.000000 -0.000000 135 135 135 255
-1.050000 -0.500000 1.000000 0.000000 -1.000000 -0.000000 135 135 135 255
0.890000 -0.500000 0.940000 0.000000 -1.000000 0.000000 135 135 135 255
0.950000 -0.500000 1.000000 -0.000000 -1.000000 0.000000 135 135 135 255
0.950000 -0.500000 0.000000 0.000000 -1.000000 0.000000 135 135 135 255
0.890000 -0.500000 0.000000 0.000000 -1.000000 0.000000 135 135 135 255
-0.990000 -0.500000 0.000000 -0.000000 -1.000000 -0.000000 135 135 135 255
3 0 1 2
3 2 1 3
3 4 5 6
3 6 5 7
3 8 9 10
3 10 9 11
3 12 13 14
3 14 13 15
3 16 17 18
3 18 17 19
3 20 21 22
3 22 21 23
3 24 25 26
3 26 25 27
3 28 29 30
3 30 29 31
3 32 33 34
3 34 33 35
3 34 35 36
3 36 35 37
3 36 37 38
3 38 39 36
3 40 41 42
3 42 41 43
3 42 43 44
3 44 43 45
3 45 43 46
3 40 47 41
